<svg version="1.2" baseProfile="tiny-ps" xmlns="http://www.w3.org/2000/svg" viewBox="0 0 36 52" width="36" height="52">
	<title>contact</title>
	<style>
		tspan { white-space:pre }
		.s0 { fill: #ffffff } 
	</style>
	<g id="contact">
		<path id="location" class="s0" d="m30.43 26.58l-12.47 22.9l-12.82-22.77c-0.58-0.84-1.09-1.72-1.5-2.67l-0.03-0.06h0c-0.8-1.86-1.25-3.9-1.25-6.06c0-8.49 6.88-15.38 15.38-15.38c8.49 0 15.38 6.88 15.38 15.38c0 3.21-0.99 6.19-2.68 8.66zm-12.7-15.82c-3.66 0-6.62 2.97-6.62 6.62c0 3.66 2.97 6.63 6.62 6.63c3.66 0 6.62-2.97 6.62-6.63c0-3.66-2.97-6.62-6.62-6.62z" />
	</g>
</svg>