<svg version="1.2" baseProfile="tiny-ps" xmlns="http://www.w3.org/2000/svg" viewBox="0 0 40 40" width="40" height="40">
	<title>contact</title>
	<style>
		tspan { white-space:pre }
		.s0 { fill: #ffffff } 
	</style>
	<g id="contact">
		<path id="Phone" class="s0" d="m36 20c-2.21 0-4-1.79-4-4v-4c0-1.62 0.97-3 2.36-3.63l-2.87 0.25c-0.32-1.4-1.05-2.78-2.68-2.69c-3.24 0.18-15.84-0.54-18 0.18c-1.63 0.54-2.2 1.9-2.54 4.54l-0.54 0.05c0.14 0.41 0.26 0.83 0.26 1.29v4c0 2.21-1.79 4-4 4c-2.21 0-4-1.79-4-4v-4c0-0.22 0.09-0.41 0.13-0.63l0 0c0-0.01 0-0.01 0-0.01c0.07-0.41 0.16-0.8 0.35-1.16c1.7-5.32 9.58-9.15 11.83-9.72c2.42-0.6 5.58-0.68 9.2-0.73c2.28-0.04 1.84 0.55 6.07 0.4c4.23-0.15 12.43 7.73 12.43 7.73l-3.22 0.28c1.82 0.37 3.22 1.91 3.22 3.84v4c0 2.21-1.79 4-4 4zm-33.18 12.24c3.21-3.85 8.58-10.01 12.43-12.84c5.32-3.91 8.74-0.38 21.37 12.72c1.75 0.28 3.07 1.64 3.29 3.41c0.08 0.08 0.14 0.14 0.21 0.22l-0.17 0c0.01 0.09 0.05 0.16 0.05 0.25c0 2.21-1.79 4-4 4h-32c-2.21 0-4-1.79-4-4c0-1.79 1.2-3.25 2.82-3.76zm16.68 2.11c2.88 0 5.22-2.34 5.22-5.22c0-2.88-2.34-5.22-5.22-5.22c-2.88 0-5.22 2.34-5.22 5.22c0 2.88 2.34 5.22 5.22 5.22z" />
	</g>
</svg>