<svg version="1.2" baseProfile="tiny-ps" xmlns="http://www.w3.org/2000/svg" viewBox="0 0 72 64" width="72" height="64">
	<title>Testimonials</title>
	<style>
		tspan { white-space:pre }
		.s0 { opacity: .9;fill: #464251 } 
	</style>
	<g id="Testimonials">
		<path id="“" class="s0" d="m0.97 42.13c0-18.2 8.42-31.4 24.12-40.5l5.46 8.87c-11.61 7.51-17.29 15.47-17.29 28.22c0.68-0.23 1.37-0.23 2.05-0.23c6.14 0 12.06 4.1 12.06 11.61c0 7.74-5.01 12.52-12.06 12.52c-9.1 0-14.34-7.28-14.34-20.48zm40.28 0c0-18.2 8.42-31.4 24.12-40.5l5.46 8.87c-11.6 7.51-17.29 15.47-17.29 28.22c0.68-0.23 1.37-0.23 2.05-0.23c6.14 0 12.06 4.1 12.06 11.61c0 7.74-5.01 12.52-12.06 12.52c-9.1 0-14.34-7.28-14.34-20.48z" />
	</g>
</svg>