<?xml version="1.0" standalone="no"?>
<!DOCTYPE svg PUBLIC "-//W3C//DTD SVG 20010904//EN"
 "http://www.w3.org/TR/2001/REC-SVG-20010904/DTD/svg10.dtd">
<svg version="1.0" xmlns="http://www.w3.org/2000/svg"
 width="512.000000pt" height="512.000000pt" viewBox="0 0 512.000000 512.000000"
 preserveAspectRatio="xMidYMid meet">

<g transform="translate(0.000000,512.000000) scale(0.100000,-0.100000)"
fill="#000000" stroke="none">
<path d="M2370 5113 c-371 -35 -653 -114 -961 -269 -406 -203 -782 -548 -1029
-944 -179 -286 -309 -655 -362 -1025 -17 -118 -17 -512 0 -630 42 -295 120
-553 242 -800 137 -280 272 -468 494 -691 221 -220 412 -357 681 -489 188 -92
309 -137 500 -185 196 -49 343 -70 545 -77 580 -20 1143 158 1615 511 138 103
379 339 477 466 496 644 663 1434 468 2210 -59 235 -182 525 -306 720 -211
333 -537 653 -856 843 -413 246 -871 371 -1338 365 -74 0 -151 -3 -170 -5z
m20 -520 c0 -162 3 -194 19 -229 29 -63 72 -89 151 -89 79 0 118 23 149 88 19
39 21 61 21 229 l0 186 48 -5 c98 -9 281 -44 385 -74 610 -172 1132 -612 1403
-1184 112 -239 176 -466 207 -742 l5 -43 -186 0 c-211 0 -249 -10 -293 -71
-34 -49 -34 -149 0 -198 44 -61 82 -71 293 -71 l186 0 -5 -42 c-12 -111 -46
-296 -69 -375 -219 -766 -789 -1337 -1555 -1557 -77 -22 -266 -57 -376 -69
l-43 -5 0 186 c0 211 -10 249 -71 293 -49 34 -149 34 -198 0 -61 -44 -71 -82
-71 -293 l0 -186 -42 5 c-540 63 -991 276 -1358 643 -326 325 -544 744 -619
1190 -11 63 -22 136 -24 163 l-5 47 186 0 c168 0 190 2 229 21 65 31 88 70 88
149 0 79 -26 122 -89 151 -35 16 -67 19 -228 19 l-186 0 4 43 c75 702 456
1312 1050 1679 281 174 617 288 944 321 19 2 38 5 43 5 4 1 7 -82 7 -185z"/>
<path d="M1721 3958 c-51 -34 -73 -71 -79 -127 -6 -65 -22 -38 460 -785 366
-568 396 -611 437 -633 l44 -23 546 0 547 0 44 23 c63 31 90 76 90 147 0 71
-27 116 -90 148 -44 22 -46 22 -530 22 l-485 0 -388 604 c-231 360 -399 612
-415 622 -16 11 -52 20 -87 22 -50 3 -65 0 -94 -20z"/>
</g>
</svg>
