<?xml version="1.0" standalone="no"?>
<!DOCTYPE svg PUBLIC "-//W3C//DTD SVG 20010904//EN"
 "http://www.w3.org/TR/2001/REC-SVG-20010904/DTD/svg10.dtd">
<svg version="1.0" xmlns="http://www.w3.org/2000/svg"
 width="512.000000pt" height="512.000000pt" viewBox="0 0 512.000000 512.000000"
 preserveAspectRatio="xMidYMid meet">

<g transform="translate(0.000000,512.000000) scale(0.100000,-0.100000)"
fill="#000000" stroke="none">
<path d="M2501 5103 c-19 -10 -44 -31 -55 -46 -20 -27 -21 -43 -24 -395 -2
-202 0 -386 3 -410 8 -53 58 -106 108 -116 47 -9 111 18 140 58 22 31 22 33
22 431 0 366 -2 403 -18 428 -39 59 -116 82 -176 50z"/>
<path d="M795 4398 c-41 -22 -75 -63 -81 -96 -14 -74 -1 -91 293 -384 237
-235 283 -277 315 -283 99 -19 184 69 163 168 -6 25 -70 95 -279 306 -149 151
-285 279 -303 287 -39 17 -81 18 -108 2z"/>
<path d="M4215 4396 c-16 -7 -152 -137 -302 -287 -231 -233 -272 -280 -278
-311 -19 -99 69 -184 168 -163 25 6 95 70 314 289 244 243 283 286 288 318 10
52 0 83 -38 124 -26 29 -42 37 -77 40 -26 3 -57 -2 -75 -10z"/>
<path d="M2337 3855 c-170 -29 -360 -106 -517 -210 -96 -64 -281 -249 -345
-345 -154 -232 -225 -466 -225 -740 0 -274 71 -508 225 -740 64 -96 249 -281
345 -345 228 -152 470 -225 740 -225 270 0 506 71 735 221 100 66 284 249 350
349 151 228 225 470 225 739 0 348 -122 654 -359 904 -200 210 -456 347 -731
392 -114 18 -334 18 -443 0z m369 -266 c393 -54 727 -340 847 -724 150 -479
-76 -1007 -528 -1233 -244 -122 -516 -145 -770 -65 -488 153 -794 634 -724
1139 55 394 343 730 729 848 144 45 294 56 446 35z"/>
<path d="M93 2689 c-35 -10 -80 -58 -89 -95 -19 -74 38 -157 117 -169 24 -3
208 -5 409 -3 359 3 365 3 396 25 40 29 67 93 58 140 -8 44 -61 98 -104 107
-50 9 -751 5 -787 -5z"/>
<path d="M4232 2693 c-33 -7 -88 -65 -95 -102 -16 -78 37 -155 115 -166 24 -3
207 -5 408 -3 330 3 369 5 393 21 83 54 85 171 4 231 -28 20 -41 21 -415 22
-213 1 -397 0 -410 -3z"/>
<path d="M1295 1475 c-16 -9 -150 -136 -298 -283 -284 -283 -297 -301 -283
-375 7 -39 60 -93 101 -103 14 -3 42 -3 63 1 32 6 75 44 309 278 150 149 280
287 289 305 51 109 -76 233 -181 177z"/>
<path d="M3720 1479 c-61 -25 -97 -91 -85 -157 6 -32 48 -78 283 -315 294
-295 310 -307 385 -293 39 7 93 60 103 101 3 14 3 42 -1 63 -6 32 -44 75 -278
309 -149 150 -286 280 -303 288 -36 17 -68 18 -104 4z"/>
<path d="M2522 983 c-40 -8 -90 -68 -97 -115 -3 -24 -5 -208 -3 -410 3 -352 4
-368 24 -395 60 -81 177 -79 231 4 16 25 18 62 18 428 0 370 -1 402 -18 427
-33 49 -96 73 -155 61z"/>
</g>
</svg>
