<?xml version="1.0" standalone="no"?>
<!DOCTYPE svg PUBLIC "-//W3C//DTD SVG 20010904//EN"
 "http://www.w3.org/TR/2001/REC-SVG-20010904/DTD/svg10.dtd">
<svg version="1.0" xmlns="http://www.w3.org/2000/svg"
 width="512.000000pt" height="512.000000pt" viewBox="0 0 512.000000 512.000000"
 preserveAspectRatio="xMidYMid meet">

<g transform="translate(0.000000,512.000000) scale(0.100000,-0.100000)"
fill="#000000" stroke="none">
<path d="M1085 4801 c-50 -22 -99 -70 -128 -125 -21 -39 -22 -53 -25 -353 l-3
-312 -332 -3 -332 -3 -57 -27 c-71 -33 -138 -101 -175 -176 l-28 -57 0 -1590
0 -1590 29 -59 c37 -76 101 -140 174 -174 l57 -27 2280 -3 c2039 -2 2284 0
2326 13 110 37 195 125 230 236 18 58 19 122 19 1604 0 1482 -1 1546 -19 1604
-34 110 -110 190 -220 231 -47 18 -78 20 -370 20 l-320 0 -3 313 c-3 300 -4
314 -25 353 -29 55 -78 103 -128 125 -38 18 -107 19 -1475 19 -1368 0 -1437
-1 -1475 -19z m2793 -538 l-3 -248 -1315 0 -1315 0 -3 248 -2 247 1320 0 1320
0 -2 -247z m922 -582 c6 -13 10 -185 10 -490 l0 -471 -783 2 -782 3 -5 110
c-6 121 -17 151 -74 208 -18 18 -50 42 -72 53 -37 18 -64 19 -534 19 -470 0
-497 -1 -534 -19 -22 -11 -54 -35 -72 -53 -57 -57 -68 -87 -74 -208 l-5 -110
-782 -3 -783 -2 0 471 c0 305 4 477 10 490 11 19 46 19 2240 19 2194 0 2229 0
2240 -19z m-1870 -1121 l0 -250 -370 0 -370 0 0 250 0 250 370 0 370 0 0 -250z
m-1050 -257 c0 -123 15 -167 72 -225 76 -76 54 -73 608 -73 554 0 532 -3 608
73 57 58 72 102 72 225 l0 107 785 0 785 0 0 -881 c0 -588 -3 -887 -10 -900
-11 -19 -46 -19 -2240 -19 -2194 0 -2229 0 -2240 19 -7 13 -10 312 -10 900 l0
881 785 0 785 0 0 -107z"/>
</g>
</svg>
