<?xml version="1.0" standalone="no"?>
<!DOCTYPE svg PUBLIC "-//W3C//DTD SVG 20010904//EN"
 "http://www.w3.org/TR/2001/REC-SVG-20010904/DTD/svg10.dtd">
<svg version="1.0" xmlns="http://www.w3.org/2000/svg"
 width="1080.000000pt" height="425.000000pt" viewBox="0 0 1080.000000 425.000000"
 preserveAspectRatio="xMidYMid meet">

<g transform="translate(0.000000,425.000000) scale(0.100000,-0.100000)"
fill="#000000" stroke="none">
<path d="M775 4235 c-242 -24 -340 -44 -480 -95 -124 -45 -228 -127 -272 -214
-24 -46 -25 -54 -14 -101 17 -70 46 -109 122 -160 121 -82 292 -145 499 -185
108 -21 111 -21 142 -3 73 42 51 121 -38 136 -63 11 -257 74 -309 100 -90 45
-143 106 -129 149 9 31 73 97 113 118 45 22 160 55 276 77 74 14 149 17 415
17 192 0 366 -4 425 -11 55 -7 155 -18 223 -24 67 -7 122 -14 122 -16 0 -3
-15 -23 -34 -46 -117 -146 -533 -803 -690 -1092 -21 -38 -65 -118 -98 -178
-128 -233 -263 -529 -348 -762 -123 -339 -159 -611 -97 -745 73 -161 231 -197
358 -83 56 50 79 100 79 168 0 69 -21 105 -60 105 -22 0 -40 -13 -81 -60 -83
-96 -101 -79 -94 88 12 256 90 493 298 902 220 433 539 923 932 1435 86 111
109 156 101 191 -4 13 -3 24 1 24 13 0 227 -72 238 -80 6 -4 28 -13 50 -20 58
-19 223 -102 285 -143 108 -73 226 -208 257 -294 30 -84 36 -116 36 -203 0
-110 -23 -180 -89 -276 -100 -145 -332 -269 -624 -333 -196 -43 -623 -61 -770
-32 -30 6 -73 24 -96 41 -22 16 -52 32 -67 35 -22 6 -29 2 -47 -27 -28 -47
-25 -72 15 -117 74 -81 181 -106 460 -106 301 0 544 28 776 89 165 44 474 213
566 311 60 63 112 153 143 244 25 74 29 225 9 306 -58 232 -258 446 -543 581
-294 139 -782 249 -1266 285 -219 16 -559 18 -695 4z"/>
<path d="M9368 4126 c-42 -18 -98 -46 -125 -61 -351 -203 -764 -849 -1004
-1570 -55 -164 -89 -287 -104 -372 -3 -18 -9 -42 -13 -55 -13 -34 -17 -107
-16 -258 0 -115 4 -146 24 -210 27 -82 71 -160 116 -202 90 -84 269 -92 414
-18 60 30 181 123 231 177 22 25 42 43 43 41 1 -2 8 -32 15 -67 21 -108 53
-156 124 -186 110 -46 301 28 464 179 33 30 71 71 84 91 28 40 39 44 39 13 0
-62 54 -156 117 -204 129 -98 368 -99 527 -2 197 120 386 362 453 578 50 161
53 236 13 342 -28 74 -86 134 -175 178 -67 33 -75 35 -175 35 -114 -1 -116 -2
-310 -106 -78 -42 -191 -158 -267 -274 -231 -353 -316 -460 -455 -576 -87 -72
-173 -100 -206 -67 -61 61 129 520 325 786 30 40 59 87 65 104 10 29 9 34 -21
60 -17 15 -42 28 -56 28 -45 0 -129 -41 -173 -83 -56 -54 -140 -181 -202 -302
-85 -166 -205 -331 -339 -466 -103 -102 -159 -136 -237 -145 -157 -17 -221
175 -178 535 6 46 12 59 43 85 89 74 497 487 635 641 450 503 659 822 700
1068 16 94 8 143 -37 218 -45 75 -90 99 -187 99 -63 0 -87 -6 -152 -34z m183
-167 c34 -65 -57 -304 -194 -509 -149 -221 -376 -501 -646 -793 -166 -181
-243 -268 -265 -299 -26 -36 -25 -16 1 52 179 468 328 766 521 1045 159 230
375 451 493 504 57 26 76 26 90 0z m959 -1568 c57 -30 73 -69 72 -170 -1 -186
-105 -396 -283 -571 -106 -104 -181 -144 -272 -144 -59 0 -71 3 -93 26 -47 47
-52 165 -13 303 32 110 114 234 254 385 84 90 99 113 91 146 -5 19 -2 25 16
28 13 3 32 7 43 9 56 12 152 6 185 -12z"/>
<path d="M7185 3463 c-112 -24 -230 -78 -344 -156 -170 -118 -430 -437 -595
-730 -43 -76 -83 -140 -89 -142 -7 -1 -57 -15 -112 -30 -55 -15 -117 -36 -137
-46 -48 -25 -56 -24 -51 5 12 61 -42 86 -186 86 -50 0 -91 2 -91 4 0 10 126
216 167 274 68 95 142 166 211 201 34 17 62 34 62 37 0 3 -8 19 -17 34 -61
103 -210 68 -358 -84 -89 -91 -137 -160 -251 -358 -42 -73 -83 -140 -91 -149
-8 -9 -35 -22 -61 -29 -180 -49 -284 -175 -202 -244 33 -27 51 -25 112 16 14
10 31 18 36 18 24 0 -235 -363 -337 -473 -92 -98 -247 -192 -307 -185 -25 3
-29 8 -32 40 -6 69 46 146 253 377 121 136 162 198 180 275 21 91 -10 133
-161 221 -119 70 -129 78 -166 134 -24 38 -28 55 -28 113 0 60 -3 72 -25 93
-29 30 -74 33 -103 8 -19 -16 -65 -112 -160 -328 -32 -73 -214 -430 -275 -540
-35 -62 -49 -80 -65 -78 -29 3 -35 -24 -15 -66 51 -104 140 -20 345 328 98
165 158 292 158 332 0 11 2 19 4 19 3 0 48 -42 100 -94 78 -76 96 -100 96
-123 0 -22 -22 -57 -87 -137 -178 -220 -251 -342 -273 -455 -30 -158 69 -295
213 -293 115 1 253 67 378 181 39 35 71 62 73 60 1 -2 8 -29 15 -59 27 -123
85 -180 190 -188 177 -13 364 122 600 433 93 122 141 200 141 226 0 6 -9 24
-21 40 -44 63 -86 34 -219 -152 -95 -133 -268 -308 -332 -337 -56 -26 -110
-28 -128 -7 -17 20 -7 114 21 197 25 75 218 472 247 509 26 32 75 47 182 54
47 3 105 8 130 10 l44 5 -41 -42 c-51 -54 -63 -77 -63 -126 0 -44 23 -72 60
-72 13 0 48 19 79 42 48 36 175 98 202 98 5 0 -7 -28 -27 -62 -181 -317 -370
-874 -405 -1193 -5 -55 -14 -118 -19 -140 -17 -76 -10 -342 11 -448 26 -130
57 -195 125 -267 102 -107 219 -127 359 -62 125 59 294 253 407 467 107 204
202 636 202 925 0 58 -14 241 -25 307 -14 90 -72 264 -108 323 -17 28 -31 53
-31 56 0 2 -18 29 -40 58 -25 33 -60 64 -93 81 l-52 29 64 13 c78 16 313 40
486 49 116 6 131 9 152 30 42 42 28 82 -44 118 -40 20 -280 22 -446 4 -59 -6
-110 -9 -113 -5 -3 3 2 14 11 24 8 10 62 88 118 173 168 255 291 396 441 507
94 70 139 87 237 91 87 4 87 4 100 -24 8 -16 26 -35 41 -44 32 -17 50 -10 81
33 20 25 20 26 -3 82 -24 59 -68 98 -141 123 -34 12 -122 14 -164 5z m-822
-1364 c108 -112 181 -354 179 -594 -1 -123 -13 -268 -27 -320 -7 -27 -16 -75
-20 -105 -7 -54 -78 -285 -108 -351 -9 -19 -34 -74 -56 -123 -84 -184 -217
-344 -318 -382 -41 -16 -47 -16 -78 -1 -42 20 -79 68 -100 131 -13 37 -17 85
-16 203 0 84 3 158 6 163 4 6 10 45 15 88 12 100 63 343 95 451 14 47 31 104
37 126 22 79 131 382 173 480 89 206 131 285 152 285 9 0 39 -23 66 -51z"/>
<path d="M9705 3067 c-191 -75 -253 -189 -154 -283 26 -25 38 -29 88 -29 77 0
119 32 160 118 38 83 46 122 31 156 -19 46 -67 61 -125 38z"/>
<path d="M3479 2537 c-37 -12 -86 -36 -110 -52 -24 -16 -65 -40 -91 -53 -60
-30 -171 -148 -245 -260 -52 -80 -133 -237 -133 -260 0 -6 -9 -32 -21 -59 -16
-39 -20 -68 -20 -153 0 -109 9 -148 49 -211 29 -47 112 -103 181 -123 115 -33
293 -12 394 47 197 116 399 366 469 581 52 161 52 272 1 374 -78 155 -294 232
-474 169z m220 -145 c57 -28 75 -63 79 -148 10 -199 -136 -478 -337 -643 -36
-29 -86 -63 -111 -74 -54 -23 -147 -27 -183 -8 -97 52 -73 294 50 489 26 41
122 158 202 246 69 76 81 98 61 111 -59 36 170 63 239 27z"/>
<path d="M7570 2553 c-43 -9 -143 -54 -176 -79 -18 -13 -50 -31 -73 -40 -52
-21 -171 -146 -245 -258 -193 -293 -236 -555 -116 -706 105 -132 376 -161 556
-59 118 67 252 195 347 332 59 86 86 139 124 247 91 258 40 431 -159 531 -54
27 -76 32 -148 35 -47 1 -96 0 -110 -3z m178 -163 c53 -32 72 -74 72 -157 0
-178 -113 -416 -271 -570 -118 -116 -188 -154 -280 -157 -105 -2 -141 39 -141
160 1 71 30 200 58 255 32 63 118 181 190 262 144 161 140 155 125 178 -7 12
-11 22 -9 24 11 12 84 23 148 24 58 1 82 -3 108 -19z"/>
</g>
</svg>
